<mxfile host="drawio-plugin" modified="2022-11-22T15:48:26.138Z" agent="5.0 (X11; Linux x86_64) AppleWebKit/537.36 (KHTML, like Gecko) Chrome/98.0.4758.102 Safari/537.36" etag="mnnLNRmA-pPzsmMucNXO" version="20.5.3" type="embed" pages="2"><diagram id="z46qVbTqmk4FGrl7Hj8W" name="P치gina-1"><mxGraphModel dx="989" dy="924" grid="0" gridSize="10" guides="1" tooltips="1" connect="1" arrows="1" fold="1" page="1" pageScale="1" pageWidth="1920" pageHeight="1200" background="#283618" math="0" shadow="0"><root><mxCell id="0"/><mxCell id="1" parent="0"/><mxCell id="XNPdj5AVDO4fs1qgY6Q1-5" style="edgeStyle=orthogonalEdgeStyle;rounded=0;orthogonalLoop=1;jettySize=auto;html=1;entryX=0.5;entryY=0;entryDx=0;entryDy=0;labelBackgroundColor=#283618;strokeColor=#DDA15E;fontColor=#FEFAE0;" parent="1" source="XNPdj5AVDO4fs1qgY6Q1-1" target="XNPdj5AVDO4fs1qgY6Q1-2" edge="1"><mxGeometry relative="1" as="geometry"/></mxCell><mxCell id="XNPdj5AVDO4fs1qgY6Q1-1" value="Main" style="ellipse;whiteSpace=wrap;html=1;fillColor=#BC6C25;strokeColor=#DDA15E;fontColor=#FEFAE0;" parent="1" vertex="1"><mxGeometry y="80" width="120" height="80" as="geometry"/></mxCell><mxCell id="XNPdj5AVDO4fs1qgY6Q1-4" style="edgeStyle=orthogonalEdgeStyle;rounded=0;orthogonalLoop=1;jettySize=auto;html=1;entryX=0.5;entryY=0;entryDx=0;entryDy=0;labelBackgroundColor=#283618;strokeColor=#DDA15E;fontColor=#FEFAE0;" parent="1" source="XNPdj5AVDO4fs1qgY6Q1-2" target="XNPdj5AVDO4fs1qgY6Q1-3" edge="1"><mxGeometry relative="1" as="geometry"/></mxCell><mxCell id="XNPdj5AVDO4fs1qgY6Q1-9" value="" style="edgeStyle=orthogonalEdgeStyle;rounded=0;orthogonalLoop=1;jettySize=auto;html=1;labelBackgroundColor=#283618;strokeColor=#DDA15E;fontColor=#FEFAE0;" parent="1" source="XNPdj5AVDO4fs1qgY6Q1-2" target="XNPdj5AVDO4fs1qgY6Q1-6" edge="1"><mxGeometry relative="1" as="geometry"/></mxCell><mxCell id="XNPdj5AVDO4fs1qgY6Q1-2" value="Opciones" style="whiteSpace=wrap;html=1;aspect=fixed;fillColor=#BC6C25;strokeColor=#DDA15E;fontColor=#FEFAE0;" parent="1" vertex="1"><mxGeometry x="20" y="220" width="80" height="80" as="geometry"/></mxCell><mxCell id="XNPdj5AVDO4fs1qgY6Q1-3" value="Salida del progama" style="shape=parallelogram;perimeter=parallelogramPerimeter;whiteSpace=wrap;html=1;fixedSize=1;fillColor=#BC6C25;strokeColor=#DDA15E;fontColor=#FEFAE0;" parent="1" vertex="1"><mxGeometry y="400" width="120" height="60" as="geometry"/></mxCell><mxCell id="Rw4lsyih06ZQLFFALscU-10" style="edgeStyle=orthogonalEdgeStyle;rounded=0;orthogonalLoop=1;jettySize=auto;html=1;entryX=0;entryY=0.5;entryDx=0;entryDy=0;labelBackgroundColor=#283618;strokeColor=#DDA15E;fontColor=#FEFAE0;" parent="1" source="XNPdj5AVDO4fs1qgY6Q1-6" target="Rw4lsyih06ZQLFFALscU-1" edge="1"><mxGeometry relative="1" as="geometry"/></mxCell><mxCell id="XNPdj5AVDO4fs1qgY6Q1-6" value="Elegir dimension de vector" style="shape=parallelogram;perimeter=parallelogramPerimeter;whiteSpace=wrap;html=1;fixedSize=1;size=10;fillColor=#BC6C25;strokeColor=#DDA15E;fontColor=#FEFAE0;" parent="1" vertex="1"><mxGeometry x="130" y="230" width="120" height="60" as="geometry"/></mxCell><mxCell id="Rw4lsyih06ZQLFFALscU-13" style="edgeStyle=orthogonalEdgeStyle;rounded=0;orthogonalLoop=1;jettySize=auto;html=1;entryX=0;entryY=0.5;entryDx=0;entryDy=0;labelBackgroundColor=#283618;strokeColor=#DDA15E;fontColor=#FEFAE0;" parent="1" source="XNPdj5AVDO4fs1qgY6Q1-19" target="Rw4lsyih06ZQLFFALscU-12" edge="1"><mxGeometry relative="1" as="geometry"/></mxCell><mxCell id="XNPdj5AVDO4fs1qgY6Q1-19" value="Elegir la operacion" style="shape=parallelogram;perimeter=parallelogramPerimeter;whiteSpace=wrap;html=1;fixedSize=1;fillColor=#BC6C25;strokeColor=#DDA15E;fontColor=#FEFAE0;" parent="1" vertex="1"><mxGeometry x="500" y="230" width="120" height="60" as="geometry"/></mxCell><mxCell id="Rw4lsyih06ZQLFFALscU-30" style="edgeStyle=orthogonalEdgeStyle;rounded=0;orthogonalLoop=1;jettySize=auto;html=1;fontSize=12;labelBackgroundColor=#283618;strokeColor=#DDA15E;fontColor=#FEFAE0;" parent="1" source="jjmZjCHJbBwbndmwfa4u-1" edge="1"><mxGeometry relative="1" as="geometry"><mxPoint x="1130" y="260" as="targetPoint"/></mxGeometry></mxCell><mxCell id="jjmZjCHJbBwbndmwfa4u-1" value="Operaci칩n seleccionada:" style="shape=parallelogram;perimeter=parallelogramPerimeter;whiteSpace=wrap;html=1;fixedSize=1;size=-10;fillColor=#BC6C25;strokeColor=#DDA15E;fontColor=#FEFAE0;" parent="1" vertex="1"><mxGeometry x="880" y="230" width="120" height="60" as="geometry"/></mxCell><mxCell id="jjmZjCHJbBwbndmwfa4u-26" value="El resultado es:" style="rounded=0;whiteSpace=wrap;html=1;fillColor=#BC6C25;strokeColor=#DDA15E;fontColor=#FEFAE0;" parent="1" vertex="1"><mxGeometry x="1330" y="230" width="120" height="60" as="geometry"/></mxCell><mxCell id="jjmZjCHJbBwbndmwfa4u-35" style="edgeStyle=orthogonalEdgeStyle;rounded=0;orthogonalLoop=1;jettySize=auto;html=1;exitX=0.5;exitY=1;exitDx=0;exitDy=0;entryX=0.75;entryY=1;entryDx=0;entryDy=0;labelBackgroundColor=#283618;strokeColor=#DDA15E;fontColor=#FEFAE0;" parent="1" source="jjmZjCHJbBwbndmwfa4u-32" target="XNPdj5AVDO4fs1qgY6Q1-19" edge="1"><mxGeometry relative="1" as="geometry"/></mxCell><mxCell id="jjmZjCHJbBwbndmwfa4u-42" style="edgeStyle=orthogonalEdgeStyle;rounded=0;orthogonalLoop=1;jettySize=auto;html=1;entryX=0.5;entryY=0;entryDx=0;entryDy=0;labelBackgroundColor=#283618;strokeColor=#DDA15E;fontColor=#FEFAE0;" parent="1" source="jjmZjCHJbBwbndmwfa4u-32" target="jjmZjCHJbBwbndmwfa4u-36" edge="1"><mxGeometry relative="1" as="geometry"><mxPoint x="1550" y="540" as="targetPoint"/></mxGeometry></mxCell><mxCell id="jjmZjCHJbBwbndmwfa4u-32" value="Desea realizar otra operaci칩n?&lt;br&gt;" style="rounded=1;whiteSpace=wrap;html=1;fillColor=#BC6C25;strokeColor=#DDA15E;fontColor=#FEFAE0;" parent="1" vertex="1"><mxGeometry x="1430" y="360" width="120" height="60" as="geometry"/></mxCell><mxCell id="jjmZjCHJbBwbndmwfa4u-39" style="edgeStyle=orthogonalEdgeStyle;rounded=0;orthogonalLoop=1;jettySize=auto;html=1;entryX=0.75;entryY=1;entryDx=0;entryDy=0;labelBackgroundColor=#283618;strokeColor=#DDA15E;fontColor=#FEFAE0;" parent="1" source="jjmZjCHJbBwbndmwfa4u-36" target="XNPdj5AVDO4fs1qgY6Q1-6" edge="1"><mxGeometry relative="1" as="geometry"/></mxCell><mxCell id="jjmZjCHJbBwbndmwfa4u-46" style="edgeStyle=orthogonalEdgeStyle;rounded=0;orthogonalLoop=1;jettySize=auto;html=1;entryX=0.5;entryY=0;entryDx=0;entryDy=0;labelBackgroundColor=#283618;strokeColor=#DDA15E;fontColor=#FEFAE0;" parent="1" source="jjmZjCHJbBwbndmwfa4u-36" target="jjmZjCHJbBwbndmwfa4u-43" edge="1"><mxGeometry relative="1" as="geometry"/></mxCell><mxCell id="jjmZjCHJbBwbndmwfa4u-36" value="Cambiar dimensi칩n del vector" style="rounded=1;whiteSpace=wrap;html=1;fillColor=#BC6C25;strokeColor=#DDA15E;fontColor=#FEFAE0;" parent="1" vertex="1"><mxGeometry x="1430" y="560" width="120" height="60" as="geometry"/></mxCell><mxCell id="jjmZjCHJbBwbndmwfa4u-45" style="edgeStyle=orthogonalEdgeStyle;rounded=0;orthogonalLoop=1;jettySize=auto;html=1;entryX=0.5;entryY=1;entryDx=0;entryDy=0;labelBackgroundColor=#283618;strokeColor=#DDA15E;fontColor=#FEFAE0;" parent="1" source="jjmZjCHJbBwbndmwfa4u-43" target="XNPdj5AVDO4fs1qgY6Q1-3" edge="1"><mxGeometry relative="1" as="geometry"/></mxCell><mxCell id="jjmZjCHJbBwbndmwfa4u-43" value="Salir del progama" style="rounded=1;whiteSpace=wrap;html=1;fillColor=#BC6C25;strokeColor=#DDA15E;fontColor=#FEFAE0;" parent="1" vertex="1"><mxGeometry x="1430" y="740" width="120" height="60" as="geometry"/></mxCell><mxCell id="uYDgcr0yuh9KbJuSc6gr-21" value="Ventana QT" style="rounded=0;whiteSpace=wrap;html=1;fillColor=#BC6C25;strokeColor=#DDA15E;fontColor=#FEFAE0;" parent="1" vertex="1"><mxGeometry x="1330" y="170" width="120" height="60" as="geometry"/></mxCell><mxCell id="uYDgcr0yuh9KbJuSc6gr-43" value="" style="endArrow=none;html=1;rounded=0;labelBackgroundColor=#283618;strokeColor=#DDA15E;fontColor=#FEFAE0;" parent="1" edge="1"><mxGeometry width="50" height="50" relative="1" as="geometry"><mxPoint x="1450" y="205" as="sourcePoint"/><mxPoint x="1490" y="205" as="targetPoint"/></mxGeometry></mxCell><mxCell id="uYDgcr0yuh9KbJuSc6gr-44" value="" style="endArrow=none;html=1;rounded=0;labelBackgroundColor=#283618;strokeColor=#DDA15E;fontColor=#FEFAE0;" parent="1" edge="1"><mxGeometry width="50" height="50" relative="1" as="geometry"><mxPoint x="1450" y="259.57" as="sourcePoint"/><mxPoint x="1490" y="259.57" as="targetPoint"/></mxGeometry></mxCell><mxCell id="uYDgcr0yuh9KbJuSc6gr-45" value="" style="endArrow=classic;html=1;rounded=0;entryX=0.5;entryY=0;entryDx=0;entryDy=0;labelBackgroundColor=#283618;strokeColor=#DDA15E;fontColor=#FEFAE0;" parent="1" target="jjmZjCHJbBwbndmwfa4u-32" edge="1"><mxGeometry width="50" height="50" relative="1" as="geometry"><mxPoint x="1490" y="205" as="sourcePoint"/><mxPoint x="1540" y="155" as="targetPoint"/></mxGeometry></mxCell><mxCell id="Rw4lsyih06ZQLFFALscU-11" style="edgeStyle=orthogonalEdgeStyle;rounded=0;orthogonalLoop=1;jettySize=auto;html=1;entryX=0;entryY=0.5;entryDx=0;entryDy=0;labelBackgroundColor=#283618;strokeColor=#DDA15E;fontColor=#FEFAE0;" parent="1" source="Rw4lsyih06ZQLFFALscU-1" target="XNPdj5AVDO4fs1qgY6Q1-19" edge="1"><mxGeometry relative="1" as="geometry"/></mxCell><mxCell id="Rw4lsyih06ZQLFFALscU-1" value="Dimensiones" style="rounded=1;whiteSpace=wrap;html=1;fillColor=#BC6C25;strokeColor=#DDA15E;fontColor=#FEFAE0;" parent="1" vertex="1"><mxGeometry x="360" y="230" width="120" height="60" as="geometry"/></mxCell><mxCell id="Rw4lsyih06ZQLFFALscU-27" style="edgeStyle=orthogonalEdgeStyle;rounded=0;orthogonalLoop=1;jettySize=auto;html=1;entryX=0;entryY=0.5;entryDx=0;entryDy=0;fontSize=12;labelBackgroundColor=#283618;strokeColor=#DDA15E;fontColor=#FEFAE0;" parent="1" source="Rw4lsyih06ZQLFFALscU-12" target="jjmZjCHJbBwbndmwfa4u-1" edge="1"><mxGeometry relative="1" as="geometry"/></mxCell><mxCell id="Rw4lsyih06ZQLFFALscU-12" value="Operaciones" style="rounded=0;whiteSpace=wrap;html=1;fillColor=#BC6C25;strokeColor=#DDA15E;fontColor=#FEFAE0;" parent="1" vertex="1"><mxGeometry x="700" y="230" width="120" height="60" as="geometry"/></mxCell><mxCell id="Rw4lsyih06ZQLFFALscU-15" value="&lt;font style=&quot;font-size: 12px;&quot;&gt;Volver a la seleccion de dimension&lt;/font&gt;" style="rounded=1;whiteSpace=wrap;html=1;fontSize=6;fillColor=#BC6C25;strokeColor=#DDA15E;fontColor=#FEFAE0;" parent="1" vertex="1"><mxGeometry x="700" y="320" width="120" height="60" as="geometry"/></mxCell><mxCell id="Rw4lsyih06ZQLFFALscU-18" value="" style="endArrow=none;html=1;rounded=0;fontSize=12;labelBackgroundColor=#283618;strokeColor=#DDA15E;fontColor=#FEFAE0;" parent="1" edge="1"><mxGeometry width="50" height="50" relative="1" as="geometry"><mxPoint x="160" y="350" as="sourcePoint"/><mxPoint x="700" y="350" as="targetPoint"/></mxGeometry></mxCell><mxCell id="Rw4lsyih06ZQLFFALscU-19" value="" style="endArrow=classic;html=1;rounded=0;fontSize=12;entryX=0.25;entryY=1;entryDx=0;entryDy=0;labelBackgroundColor=#283618;strokeColor=#DDA15E;fontColor=#FEFAE0;" parent="1" target="XNPdj5AVDO4fs1qgY6Q1-6" edge="1"><mxGeometry width="50" height="50" relative="1" as="geometry"><mxPoint x="160" y="350" as="sourcePoint"/><mxPoint x="210" y="300" as="targetPoint"/></mxGeometry></mxCell><mxCell id="Rw4lsyih06ZQLFFALscU-31" value="Ingrese Vectores" style="rounded=0;whiteSpace=wrap;html=1;fontSize=12;fillColor=#BC6C25;strokeColor=#DDA15E;fontColor=#FEFAE0;" parent="1" vertex="1"><mxGeometry x="1130" y="230" width="120" height="60" as="geometry"/></mxCell><mxCell id="Rw4lsyih06ZQLFFALscU-33" value="" style="endArrow=classic;html=1;rounded=0;fontSize=12;entryX=-0.005;entryY=0.143;entryDx=0;entryDy=0;entryPerimeter=0;labelBackgroundColor=#283618;strokeColor=#DDA15E;fontColor=#FEFAE0;" parent="1" target="Rw4lsyih06ZQLFFALscU-15" edge="1"><mxGeometry width="50" height="50" relative="1" as="geometry"><mxPoint x="600" y="290" as="sourcePoint"/><mxPoint x="650" y="240" as="targetPoint"/></mxGeometry></mxCell><mxCell id="Rw4lsyih06ZQLFFALscU-34" value="" style="endArrow=classic;html=1;rounded=0;fontSize=12;entryX=0;entryY=0.5;entryDx=0;entryDy=0;labelBackgroundColor=#283618;strokeColor=#DDA15E;fontColor=#FEFAE0;" parent="1" target="uYDgcr0yuh9KbJuSc6gr-21" edge="1"><mxGeometry width="50" height="50" relative="1" as="geometry"><mxPoint x="1250" y="260" as="sourcePoint"/><mxPoint x="1300" y="210" as="targetPoint"/></mxGeometry></mxCell><mxCell id="Rw4lsyih06ZQLFFALscU-35" value="" style="endArrow=classic;html=1;rounded=0;fontSize=12;entryX=0;entryY=0.5;entryDx=0;entryDy=0;labelBackgroundColor=#283618;strokeColor=#DDA15E;fontColor=#FEFAE0;" parent="1" target="jjmZjCHJbBwbndmwfa4u-26" edge="1"><mxGeometry width="50" height="50" relative="1" as="geometry"><mxPoint x="1250" y="280" as="sourcePoint"/><mxPoint x="1300" y="230" as="targetPoint"/></mxGeometry></mxCell></root></mxGraphModel></diagram><diagram id="Yqy6F1DsBveIvbg6Eojh" name="P치gina-2"><mxGraphModel dx="1038" dy="585" grid="1" gridSize="10" guides="1" tooltips="1" connect="1" arrows="1" fold="1" page="1" pageScale="1" pageWidth="827" pageHeight="1169" math="0" shadow="0"><root><mxCell id="0"/><mxCell id="1" parent="0"/></root></mxGraphModel></diagram></mxfile>